<?xml version="1.0" standalone="no"?>
<!DOCTYPE svg PUBLIC "-//W3C//DTD SVG 20010904//EN"
 "http://www.w3.org/TR/2001/REC-SVG-20010904/DTD/svg10.dtd">
<svg version="1.0" xmlns="http://www.w3.org/2000/svg"
 width="1920.000000pt" height="611.000000pt" viewBox="0 0 1920.000000 611.000000"
 preserveAspectRatio="xMidYMid meet">

<g transform="translate(0.000000,611.000000) scale(0.100000,-0.100000)"
fill="#000000" stroke="none">
<path d="M15875 4228 c-25 -22 -27 -33 -58 -290 l-31 -268 21 -27 c28 -39 90
-44 119 -11 18 20 25 57 48 253 37 322 37 332 -10 353 -37 17 -60 15 -89 -10z"/>
<path d="M15271 4084 c-30 -39 -27 -60 27 -154 26 -47 85 -152 131 -233 46
-81 92 -152 102 -157 50 -27 119 12 119 66 0 28 -225 439 -263 482 -30 33 -89
31 -116 -4z"/>
<path d="M16271 3816 c-99 -107 -185 -206 -191 -220 -18 -49 24 -106 79 -106
26 0 43 16 256 243 132 140 161 183 150 218 -11 33 -47 59 -81 59 -29 0 -50
-19 -213 -194z"/>
<path d="M3060 3975 c-107 -24 -220 -86 -298 -163 -112 -111 -172 -252 -192
-449 -26 -257 36 -476 180 -626 126 -133 256 -187 451 -187 130 0 191 12 284
54 144 67 265 221 299 383 l7 32 -147 46 c-80 26 -150 43 -153 38 -4 -4 -15
-33 -24 -63 -45 -151 -150 -229 -291 -218 -147 12 -249 117 -276 285 -15 91
-12 291 5 358 44 165 143 249 300 250 124 0 224 -68 261 -177 8 -26 19 -48 23
-48 11 0 295 70 298 74 7 6 -39 121 -67 170 -32 57 -112 138 -172 174 -20 13
-69 34 -110 49 -92 32 -274 41 -378 18z"/>
<path d="M6135 3975 c-194 -42 -332 -151 -421 -330 -118 -239 -108 -593 24
-810 80 -131 222 -234 372 -269 85 -20 258 -21 335 -1 186 48 310 162 384 355
17 44 31 84 31 89 0 6 -46 24 -102 41 -57 17 -122 38 -146 47 -25 9 -46 12
-50 7 -5 -5 -17 -36 -27 -69 -28 -86 -71 -143 -132 -178 -158 -88 -353 -11
-412 163 -65 193 -42 475 48 589 121 152 379 139 471 -23 17 -28 30 -59 30
-68 0 -9 4 -19 9 -23 9 -5 300 60 309 69 6 7 -50 139 -80 188 -39 64 -126 139
-202 176 -116 57 -304 77 -441 47z"/>
<path d="M5147 3964 c-4 -4 -7 -319 -7 -701 l0 -693 160 0 160 0 -2 698 -3
697 -151 3 c-82 1 -153 -1 -157 -4z"/>
<path d="M7060 3270 l0 -700 155 0 155 0 0 208 0 207 101 105 c81 85 102 102
110 90 34 -52 349 -594 349 -601 0 -5 93 -9 206 -9 161 0 204 3 198 13 -10 17
-97 151 -327 504 -109 166 -200 309 -203 318 -7 18 29 58 323 356 106 107 193
198 193 202 0 4 -94 7 -208 7 l-209 0 -43 -47 c-128 -140 -353 -383 -442 -478
l-48 -50 0 288 0 287 -155 0 -155 0 0 -700z"/>
<path d="M8960 3270 l0 -700 160 0 160 0 0 295 0 295 250 0 250 0 0 -295 0
-295 155 0 155 0 0 700 0 701 -155 -3 -156 -3 -2 -265 -2 -265 -247 -3 -248
-2 -2 267 -3 268 -157 3 -158 3 0 -701z"/>
<path d="M10339 3966 c-2 -2 -3 -317 -1 -700 l2 -696 535 0 535 0 0 135 0 135
-380 0 -380 0 0 165 0 165 340 0 c265 0 340 3 341 13 1 9 0 218 -1 250 0 4
-153 7 -340 7 l-340 0 0 130 0 130 370 0 371 0 -3 133 -3 132 -521 3 c-286 1
-522 0 -525 -2z"/>
<path d="M11610 3270 l0 -700 155 0 155 0 0 286 0 287 75 -6 c90 -8 130 -24
171 -68 31 -33 143 -193 277 -396 l68 -103 185 0 c148 0 185 3 181 13 -3 7
-34 60 -70 117 -207 329 -246 383 -319 440 l-49 39 28 7 c48 12 142 63 183
100 22 20 54 65 71 100 40 81 51 208 26 295 -37 123 -123 218 -230 252 -90 28
-222 37 -569 37 l-338 0 0 -700z m760 405 c48 -28 72 -78 67 -138 -5 -57 -30
-95 -79 -120 -30 -15 -67 -18 -234 -20 l-199 -2 -3 153 -3 154 208 -4 c187 -3
211 -5 243 -23z"/>
<path d="M12987 3963 c-4 -3 -7 -318 -7 -700 l0 -693 540 0 541 0 -3 133 -3
132 -377 3 -378 2 0 165 0 165 340 0 340 0 0 135 0 135 -340 0 -340 0 0 130 0
130 365 0 365 0 0 135 0 135 -518 0 c-285 0 -522 -3 -525 -7z"/>
<path d="M3995 3948 c-3 -7 -4 -319 -3 -693 l3 -680 498 -3 497 -2 0 135 0
135 -340 0 -340 0 -2 558 -3 557 -153 3 c-116 2 -154 0 -157 -10z"/>
<path d="M14865 3615 c-32 -57 -15 -82 85 -133 199 -99 397 -185 428 -186 44
0 76 33 76 79 0 19 -7 42 -14 50 -8 8 -118 62 -244 120 -266 122 -300 129
-331 70z"/>
<path d="M16526 3439 c-260 -53 -286 -64 -286 -121 0 -41 15 -64 49 -76 25 -9
79 -1 293 43 221 45 265 57 280 75 42 52 2 131 -64 129 -18 -1 -141 -23 -272
-50z"/>
<path d="M15786 3249 c-18 -14 -26 -30 -26 -50 0 -27 169 -936 270 -1454 73
-374 149 -770 180 -930 21 -111 36 -165 49 -178 27 -27 78 -25 105 4 13 13
108 166 212 339 103 173 214 358 246 410 l57 96 328 37 c697 79 664 75 690 99
33 30 31 77 -4 110 -16 14 -131 103 -258 198 -284 215 -446 338 -550 419 -79
62 -418 318 -944 714 -292 220 -304 226 -355 186z m377 -401 c274 -207 472
-357 792 -599 149 -113 362 -274 474 -359 166 -125 201 -155 185 -161 -10 -4
-192 -26 -404 -49 -212 -23 -396 -47 -410 -54 -17 -7 -59 -68 -127 -181 -295
-490 -318 -526 -325 -508 -12 30 -397 2063 -390 2063 2 0 94 -68 205 -152z"/>
<path d="M15095 3098 c-147 -30 -250 -56 -265 -67 -36 -26 -39 -82 -6 -116 14
-14 34 -25 44 -25 29 0 504 98 530 110 27 12 44 52 36 86 -8 30 -50 64 -78 63
-11 -1 -129 -23 -261 -51z"/>
<path d="M15462 2860 c-101 -101 -339 -365 -346 -386 -21 -52 33 -118 87 -107
19 4 72 55 179 172 84 91 155 168 158 171 63 59 76 115 35 155 -34 35 -76 33
-113 -5z"/>
</g>
</svg>
