<?xml version="1.0" standalone="no"?>
<!DOCTYPE svg PUBLIC "-//W3C//DTD SVG 20010904//EN"
 "http://www.w3.org/TR/2001/REC-SVG-20010904/DTD/svg10.dtd">
<svg version="1.0" xmlns="http://www.w3.org/2000/svg"
 width="612.000000pt" height="404.000000pt" viewBox="0 0 612.000000 404.000000"
 preserveAspectRatio="xMidYMid meet">

<g transform="translate(0.000000,404.000000) scale(0.100000,-0.100000)"
fill="#000000" stroke="none">
<path d="M840 2620 c0 -33 4 -60 10 -60 6 0 10 27 10 60 0 33 -4 60 -10 60 -6
0 -10 -27 -10 -60z"/>
<path d="M1405 2660 c-182 -5 -206 -8 -272 -31 -182 -67 -317 -204 -379 -386
-23 -65 -27 -95 -27 -183 1 -197 78 -348 242 -474 75 -58 128 -83 218 -107 74
-18 123 -19 1567 -18 1430 1 1981 7 2019 24 20 8 24 40 4 32 -68 -26 -221 -28
-1862 -25 l-1700 3 -75 28 c-188 69 -328 216 -375 393 -19 71 -21 211 -5 279
45 182 198 349 381 415 62 23 77 24 519 31 250 4 1034 7 1741 8 1250 1 1288 0
1363 -19 106 -27 190 -73 261 -145 100 -99 153 -197 177 -325 13 -67 4 -189
-17 -249 -18 -53 -19 -61 -2 -61 20 0 47 94 54 185 6 100 -14 200 -59 293 -48
98 -178 226 -279 275 -144 70 -47 67 -1754 65 -847 -1 -1630 -4 -1740 -8z"/>
<path d="M697 2643 c-8 -12 80 -99 90 -90 4 4 -14 28 -39 53 -25 26 -48 42
-51 37z"/>
<path d="M688 2502 c-16 -2 -28 -8 -28 -13 0 -12 117 -12 125 1 3 6 3 10 -2
11 -35 3 -72 4 -95 1z"/>
<path d="M4721 1903 c-11 -22 -8 -33 92 -343 87 -270 94 -276 207 -164 36 35
69 64 73 64 4 0 68 -58 142 -130 149 -144 165 -152 209 -99 14 17 26 36 26 43
0 8 -63 74 -139 149 l-139 135 69 68 c59 59 69 73 67 99 -3 34 -4 35 -323 132
-217 66 -268 74 -284 46z m126 -27 c93 -33 435 -136 451 -136 30 0 6 -41 -63
-110 l-75 -75 146 -140 146 -140 -22 -27 c-12 -16 -28 -28 -36 -28 -8 0 -76
60 -150 133 -75 72 -140 134 -146 136 -6 2 -43 -29 -83 -69 -74 -74 -106 -86
-113 -45 -2 11 -39 126 -83 257 -43 130 -79 243 -79 252 0 22 27 20 107 -8z"/>
</g>
</svg>
